<?xml version="1.0" standalone="no"?>
<!DOCTYPE svg PUBLIC "-//W3C//DTD SVG 20010904//EN"
 "http://www.w3.org/TR/2001/REC-SVG-20010904/DTD/svg10.dtd">
<svg version="1.0" xmlns="http://www.w3.org/2000/svg"
 width="723.000000pt" height="723.000000pt" viewBox="0 0 723.000000 723.000000"
 preserveAspectRatio="xMidYMid meet">
<metadata>
Created by potrace 1.11, written by Peter Selinger 2001-2013
</metadata>
<g transform="translate(0.000000,723.000000) scale(0.100000,-0.100000)"
fill="#000000" stroke="none">
<path d="M2888 7215 c-2 -2 -22 -5 -46 -9 -51 -7 -142 -38 -142 -48 0 -4 24 1
54 12 111 38 255 44 348 14 13 -4 18 -2 14 4 -10 17 -212 41 -228 27z"/>
<path d="M3134 7181 c3 -4 27 -16 53 -26 26 -10 63 -27 81 -37 17 -9 32 -14
32 -10 0 8 -66 44 -124 67 -44 17 -49 18 -42 6z"/>
<path d="M2640 7133 c-25 -15 -51 -33 -58 -40 -7 -7 -18 -13 -23 -13 -5 0 -9
-5 -9 -11 0 -6 15 -1 33 13 17 13 49 32 70 43 20 11 37 23 37 27 0 11 1 11
-50 -19z"/>
<path d="M3310 7103 c0 -10 72 -68 85 -68 6 0 10 -7 10 -15 1 -8 6 -14 13 -12
7 1 12 -5 12 -13 0 -8 4 -15 8 -15 4 0 21 -22 37 -50 27 -47 52 -69 39 -35 -4
8 -10 15 -15 15 -5 0 -9 9 -9 19 0 11 -3 21 -7 23 -5 2 -25 24 -46 51 -21 26
-43 45 -48 42 -5 -4 -9 -2 -9 3 0 5 -16 22 -35 36 -19 15 -35 23 -35 19z"/>
<path d="M2500 7033 c-21 -22 -22 -25 -4 -15 24 13 51 42 38 42 -5 0 -20 -12
-34 -27z"/>
<path d="M2444 6988 c-10 -13 -12 -17 -4 -11 8 6 18 12 23 12 8 1 11 11 4 17
-2 2 -12 -6 -23 -18z"/>
<path d="M2405 6951 c-3 -5 0 -13 6 -17 7 -4 9 -3 5 4 -3 5 0 13 6 15 9 4 10
6 1 6 -6 1 -14 -3 -18 -8z"/>
<path d="M2343 6873 c-58 -67 -105 -133 -94 -133 6 0 21 19 35 43 14 23 26 38
26 32 0 -5 7 2 17 15 9 14 30 40 46 58 17 17 27 32 21 32 -5 0 -28 -21 -51
-47z"/>
<path d="M2507 6873 c-63 -18 -115 -73 -161 -168 -20 -41 -36 -79 -36 -83 0
-14 -33 -47 -50 -50 -21 -5 -56 -39 -97 -94 -44 -61 -67 -64 -61 -8 2 22 1 40
-3 40 -4 0 -10 17 -14 38 -10 53 -70 106 -191 170 -55 29 -122 73 -149 97 -26
25 -50 44 -51 42 -5 -4 -15 -59 -21 -117 -13 -107 -6 -217 15 -257 6 -11 8
-23 5 -27 -3 -3 0 -6 7 -6 7 0 10 -3 7 -6 -3 -4 3 -18 13 -32 11 -13 20 -28
20 -32 0 -4 -24 -6 -52 -5 -72 3 -172 -11 -216 -32 -52 -24 -136 -111 -222
-228 -67 -91 -180 -214 -198 -215 -4 -1 -22 -14 -41 -29 -32 -29 -33 -29 -12
-40 12 -7 21 -9 21 -6 0 3 16 -1 35 -9 19 -8 35 -13 35 -11 0 2 15 -1 33 -6
17 -5 46 -12 62 -15 17 -3 35 -7 40 -8 38 -10 124 -24 148 -25 23 -1 22 -15
-5 -44 -58 -61 -86 -96 -80 -101 3 -3 1 -6 -4 -6 -6 0 -25 -20 -43 -44 -29
-38 -40 -45 -92 -56 -82 -18 -229 -8 -299 19 -180 69 -332 254 -343 418 -1 18
-5 29 -9 25 -13 -14 12 -118 44 -182 62 -127 224 -256 363 -289 54 -13 161
-16 231 -5 73 11 49 -9 -49 -40 -88 -28 -292 -123 -319 -149 -7 -6 -26 -19
-42 -27 -34 -17 -179 -157 -218 -210 -89 -121 -148 -299 -148 -444 0 -83 23
-208 56 -306 32 -94 123 -250 146 -250 6 0 9 -3 5 -6 -8 -8 34 -54 45 -48 5 3
7 1 6 -4 -2 -5 13 -23 32 -38 34 -28 35 -32 36 -99 1 -99 20 -306 30 -335 3
-8 8 -33 10 -55 3 -22 15 -76 25 -120 11 -44 22 -87 24 -95 11 -49 18 -76 24
-85 3 -5 6 -12 6 -15 1 -9 26 -84 35 -105 4 -11 20 -51 35 -90 52 -135 203
-424 227 -433 4 -2 8 -9 8 -14 0 -10 114 -175 130 -188 3 -3 17 -21 30 -40 34
-48 57 -70 66 -62 4 4 4 2 1 -5 -8 -13 278 -303 299 -303 8 0 14 -4 14 -9 0
-12 196 -160 300 -226 82 -52 265 -153 320 -175 19 -8 49 -22 65 -32 17 -10
41 -23 55 -30 14 -7 28 -17 32 -23 4 -5 10 -6 14 -3 6 7 34 -15 34 -26 0 -4
-12 -4 -27 -1 -16 3 -77 5 -136 5 -109 0 -264 -27 -294 -51 -7 -7 -13 -8 -13
-5 0 11 -163 -77 -188 -101 -12 -12 -24 -22 -26 -20 -8 4 -116 -110 -109 -116
3 -4 1 -7 -5 -7 -22 0 -159 -231 -147 -250 3 -4 1 -10 -5 -12 -5 -1 -11 -12
-13 -23 -1 -11 -5 -24 -8 -30 -19 -31 -33 -133 -31 -221 2 -93 41 -244 64
-244 5 0 7 -4 4 -9 -9 -14 69 -124 123 -173 126 -115 333 -157 478 -96 15 6
30 12 33 13 38 9 163 118 162 142 0 4 6 15 14 24 8 9 23 39 33 67 27 72 21
163 -13 229 -30 57 -60 88 -75 78 -6 -3 -9 0 -6 7 6 15 -56 45 -111 54 -69 11
-113 -5 -167 -58 -27 -27 -46 -52 -43 -55 3 -3 1 -12 -5 -19 -6 -8 -11 -33
-12 -57 -1 -75 52 -141 121 -151 42 -6 92 11 92 31 0 12 -3 13 -14 4 -22 -18
-87 -20 -123 -3 -18 8 -30 19 -27 24 3 4 1 8 -5 8 -15 0 -29 58 -25 101 10
114 117 173 247 135 146 -43 199 -207 119 -369 -33 -65 -90 -132 -123 -142
-10 -4 -19 -10 -19 -14 0 -4 -6 -8 -12 -9 -7 0 -32 -8 -56 -16 -100 -37 -250
-24 -354 31 -16 8 -28 12 -28 9 0 -3 -17 10 -37 29 -20 19 -42 31 -47 28 -6
-4 -8 -3 -4 2 4 4 -7 24 -24 43 -33 39 -93 159 -104 212 -14 66 -19 187 -10
265 6 62 35 153 72 228 18 37 30 67 26 67 -4 0 -2 4 3 8 6 4 30 34 54 67 132
179 292 271 526 301 111 14 376 -10 490 -46 17 -5 49 -14 73 -20 53 -14 54
-24 0 -28 -22 -1 -46 -6 -52 -10 -6 -3 -16 -7 -23 -8 -42 -7 -127 -91 -155
-154 -28 -62 -29 -189 -3 -247 10 -24 22 -43 27 -43 4 0 7 -3 7 -7 -3 -20 4
-33 44 -75 24 -26 68 -58 98 -72 55 -27 145 -41 155 -25 3 5 -13 9 -35 9 -43
0 -115 24 -142 47 -9 7 -18 11 -20 9 -3 -3 -13 8 -24 25 -11 16 -24 29 -30 29
-11 0 -72 121 -81 160 -10 45 -5 123 11 171 19 56 87 123 146 144 49 18 150
25 199 14 19 -4 49 -10 65 -13 28 -4 100 -19 155 -32 14 -3 60 -6 103 -7 42
-1 77 -4 77 -7 0 -3 -12 -13 -27 -22 -16 -9 -45 -32 -65 -51 -21 -19 -38 -32
-38 -29 0 4 -28 -23 -62 -58 -36 -38 -63 -59 -66 -52 -7 23 -54 72 -81 86 -40
20 -71 28 -71 18 0 -5 6 -9 13 -9 29 0 84 -36 110 -74 29 -39 29 -40 11 -67
-49 -72 -72 -135 -81 -212 -3 -30 -11 -58 -17 -62 -7 -5 -3 -8 8 -8 11 0 17
-3 13 -6 -3 -3 1 -28 9 -56 24 -80 71 -156 138 -223 39 -40 34 -28 -14 31 -50
62 -56 69 -57 74 -1 3 -13 30 -26 60 -13 30 -27 73 -30 96 -6 38 -4 43 27 68
29 22 61 70 66 98 1 4 5 21 10 37 5 17 4 48 -1 72 -9 39 -8 44 18 71 15 17 51
46 78 66 28 20 53 40 56 45 3 5 9 8 13 8 3 -1 30 11 59 26 44 23 114 52 125
53 2 0 -6 -17 -18 -38 -37 -62 -62 -105 -83 -147 -11 -22 -27 -47 -34 -56 -8
-9 -15 -26 -16 -38 -1 -11 -5 -21 -9 -21 -4 0 -8 -6 -8 -14 0 -8 -8 -22 -17
-32 -16 -15 -15 -16 13 -10 56 12 79 16 119 21 22 3 58 8 80 11 70 11 150 6
385 -22 92 -11 257 -11 305 1 59 14 135 51 135 66 0 6 4 8 9 4 10 -6 171 150
171 165 0 6 4 10 9 10 5 0 11 -19 15 -42 13 -81 62 -157 156 -243 30 -27 58
-54 62 -60 4 -5 8 -6 8 -2 0 8 18 -5 50 -37 11 -11 20 -16 20 -10 0 5 4 5 8
-1 10 -15 82 -67 82 -60 0 3 10 -3 22 -15 12 -11 24 -20 27 -20 3 0 5 51 5
112 -1 62 2 118 6 123 4 6 18 53 30 105 27 111 35 222 18 265 -17 43 -79 125
-122 161 -39 34 -46 48 -18 40 9 -3 40 -8 67 -11 28 -4 64 -8 80 -10 17 -2 62
-7 100 -12 87 -10 559 -10 640 0 120 15 141 19 210 34 86 19 164 41 189 55 10
5 30 12 43 14 60 11 260 126 326 188 15 14 30 26 34 26 3 0 17 13 31 29 67 72
92 101 87 101 -3 0 3 8 14 19 54 54 164 292 184 397 12 61 17 93 21 124 3 19
10 36 15 38 14 5 15 232 2 232 -10 0 -16 23 -27 94 -9 60 -51 170 -91 239 -41
70 -162 194 -199 203 -13 3 -24 10 -24 14 0 25 -218 91 -306 93 -7 0 -3 32 12
91 25 98 30 126 40 196 3 25 8 54 10 65 26 129 24 612 -2 727 -3 13 -7 37 -9
53 -4 35 -12 78 -19 103 -6 19 -15 66 -20 97 -3 19 -22 85 -33 115 -3 8 -7 20
-8 25 -1 6 -3 12 -4 15 -2 3 -4 12 -6 20 -2 8 -7 26 -13 40 -5 14 -10 27 -10
30 0 5 -34 92 -55 140 -5 14 -10 28 -9 33 1 4 -3 7 -8 7 -5 0 -9 3 -8 8 1 4
-3 17 -10 30 -7 12 -10 22 -7 22 4 0 -4 15 -17 33 -13 17 -22 34 -22 37 3 11
-40 90 -49 90 -4 0 -6 4 -2 9 3 5 -2 16 -10 24 -8 9 -15 18 -15 22 0 6 -95
157 -112 180 -5 6 -25 33 -45 60 -55 74 -56 75 -85 106 -15 17 -28 33 -30 37
-8 23 -227 248 -239 244 -5 -1 -8 1 -7 5 2 5 -1 10 -7 13 -5 3 -25 21 -45 40
-20 19 -45 42 -56 50 -10 8 -49 39 -86 68 -37 28 -72 52 -77 52 -5 0 -11 4
-13 9 -4 10 -80 58 -91 57 -5 -1 -13 7 -18 17 -6 9 -16 17 -23 17 -8 0 -19 7
-26 15 -7 8 -16 13 -20 10 -5 -3 -10 -2 -12 3 -5 13 -95 62 -102 55 -3 -3 -6
-1 -6 5 0 6 -16 16 -35 23 -19 7 -35 17 -35 21 0 4 -7 8 -15 8 -9 0 -27 7 -40
16 -14 9 -25 13 -25 10 0 -4 -10 0 -22 8 -23 15 -202 87 -225 90 -7 1 -16 5
-19 9 -4 4 -17 7 -29 7 -11 0 -25 4 -31 9 -8 7 -80 29 -114 34 -8 2 -21 6 -27
10 -7 5 -13 6 -13 3 0 -3 -21 1 -47 9 -42 12 -95 23 -198 39 -16 3 -43 7 -60
10 -90 14 -214 25 -315 28 l-36 0 1 94 c0 66 -4 97 -14 106 -11 11 -12 9 -6
-12 12 -36 13 -131 3 -161 -8 -24 -12 -25 -81 -26 -40 0 -118 -3 -174 -6 -90
-6 -103 -5 -103 9 0 8 -14 29 -30 46 -27 26 -36 30 -67 25 -43 -7 -79 -39 -95
-84 -12 -32 -32 -45 -73 -48 -11 -1 -33 -5 -48 -9 -27 -6 -27 -6 -27 46 0 57
-39 158 -61 158 -7 0 -9 3 -6 7 9 9 -22 43 -40 43 -7 0 -13 4 -13 9 0 5 -8 12
-17 15 -13 5 -11 0 6 -18 14 -14 27 -24 29 -21 8 8 72 -98 81 -135 8 -30 9
-62 3 -106 -1 -6 -25 -16 -53 -21 -42 -9 -60 -7 -102 8 -29 11 -60 19 -70 19
-29 0 -20 64 11 68 17 3 22 -2 22 -17 0 -14 5 -19 15 -15 23 9 18 33 -10 46
-21 9 -28 8 -45 -7 -11 -10 -20 -29 -20 -42 0 -20 -3 -23 -27 -17 -42 10 -45
14 -39 46 10 52 63 84 126 75 58 -8 82 -38 77 -100 -3 -29 -1 -43 4 -35 5 7 9
30 9 51 0 29 -7 46 -29 68 -59 58 -175 26 -195 -54 l-10 -37 -67 0 -68 0 11
33 c6 17 15 36 19 42 5 5 9 15 9 22 0 30 64 114 105 138 47 28 126 36 163 16
13 -7 22 -8 22 -2 0 25 -97 34 -163 14z m1123 -429 c165 -9 172 -10 265 -23
105 -14 211 -37 310 -66 44 -13 103 -29 130 -36 28 -6 59 -17 70 -24 11 -6 58
-27 105 -44 47 -18 90 -37 96 -42 6 -5 44 -23 85 -39 40 -17 76 -34 79 -39 3
-5 32 -22 66 -39 33 -17 66 -37 73 -46 8 -9 19 -16 25 -16 6 0 35 -18 64 -40
29 -22 57 -40 62 -40 6 0 10 -5 10 -10 0 -6 8 -13 18 -17 17 -6 29 -16 147
-118 111 -97 237 -226 305 -315 19 -25 37 -47 41 -50 6 -5 76 -105 123 -175
14 -22 31 -47 36 -55 20 -30 81 -146 105 -200 14 -30 36 -76 50 -103 14 -26
25 -52 25 -58 0 -6 6 -25 14 -42 7 -18 27 -77 44 -132 62 -205 72 -254 96
-475 31 -282 14 -525 -58 -850 -8 -36 -17 -73 -21 -82 -5 -13 -2 -18 9 -18 34
0 14 -16 -46 -37 -35 -12 -64 -20 -65 -19 -2 2 4 23 12 47 40 111 85 334 100
499 8 77 9 380 1 415 -2 11 -7 49 -11 85 -53 480 -295 981 -655 1354 -405 420
-925 681 -1515 763 -121 17 -441 22 -575 10 -351 -31 -724 -147 -1030 -320
-216 -123 -367 -237 -553 -420 -44 -43 -81 -77 -82 -75 -5 4 45 116 78 174 17
30 39 55 58 63 17 7 64 44 104 82 41 38 78 69 82 69 5 0 23 13 42 29 19 17 54
40 78 52 24 12 43 25 43 29 0 4 26 20 58 35 70 36 132 74 152 96 9 10 38 18
77 21 47 4 75 13 112 37 27 18 55 39 61 46 7 8 16 12 21 9 5 -3 35 5 67 17 31
12 91 29 132 39 114 27 241 59 278 69 25 7 43 5 70 -7 59 -25 185 -21 247 8
59 28 100 39 135 34 14 -1 81 -6 150 -10z m-2104 -916 c-15 -87 -79 -173 -134
-181 -20 -3 -45 -8 -54 -12 -13 -5 -18 -2 -18 8 0 8 7 17 15 21 8 3 15 12 15
20 0 7 6 16 13 19 7 2 44 45 82 95 39 50 75 91 81 91 8 1 8 -17 0 -61z m-426
-113 c-7 -8 -9 -15 -4 -15 5 0 -1 -7 -12 -15 -24 -16 -60 -94 -66 -140 -2 -16
-19 -59 -38 -95 -52 -98 -84 -171 -82 -182 1 -5 -3 -8 -10 -8 -6 0 -8 -3 -5
-7 4 -3 0 -17 -9 -31 -11 -17 -12 -22 -3 -17 8 5 6 0 -3 -11 -10 -11 -19 -29
-21 -40 -2 -10 -9 -32 -16 -49 -7 -16 -13 -38 -14 -47 -1 -10 -5 -18 -10 -18
-5 0 -7 -6 -5 -12 3 -7 -1 -24 -8 -37 -7 -14 -11 -28 -8 -33 3 -5 1 -14 -4
-21 -10 -12 -47 -167 -58 -242 -3 -22 -8 -53 -10 -70 -10 -63 -22 -174 -29
-280 -2 -27 -4 -51 -4 -53 -1 -4 -30 20 -49 42 -9 10 -29 32 -45 48 -15 16
-27 33 -27 38 0 5 -6 13 -12 17 -7 4 -19 18 -26 31 -80 143 -122 285 -126 428
-3 123 16 211 71 324 41 83 60 109 155 204 59 60 108 106 108 102 0 -4 24 11
53 33 58 42 293 170 316 171 11 0 11 -3 1 -15z m310 -83 c0 -14 -135 -210
-142 -206 -15 10 -8 88 13 130 14 29 32 48 59 62 36 18 70 24 70 14z m-164
-123 c-3 -18 -1 -49 5 -71 9 -35 7 -46 -23 -109 -18 -38 -37 -69 -43 -69 -5 0
-21 9 -35 20 l-25 19 25 48 c14 26 35 65 48 85 12 21 22 53 22 73 0 26 4 35
16 35 13 0 15 -7 10 -31z m-99 -255 c32 -24 32 -26 18 -53 -20 -40 -88 -224
-110 -301 -10 -36 -29 -78 -42 -93 -35 -43 -47 -102 -34 -163 7 -28 10 -57 7
-65 -9 -26 -16 -113 -22 -264 -4 -82 -8 -152 -10 -154 -2 -2 -18 0 -36 5 l-32
9 3 105 c1 58 6 146 12 195 5 50 12 120 14 157 3 37 9 75 14 85 5 10 17 52 26
93 28 122 81 286 126 385 12 28 21 58 20 68 -3 23 6 22 46 -9z m-194 -1136
c12 -6 17 -21 17 -54 0 -133 67 -445 135 -630 83 -226 236 -493 395 -690 94
-117 294 -311 412 -399 101 -77 103 -79 120 -139 21 -75 21 -76 4 -76 -8 0
-16 10 -20 23 -3 12 -23 34 -45 47 -22 14 -41 28 -41 31 0 4 -19 19 -42 35
-80 54 -142 109 -275 244 -151 153 -157 160 -197 215 -16 22 -33 41 -38 43 -4
2 -15 18 -24 37 -8 18 -30 49 -47 69 -18 19 -43 57 -57 83 -13 27 -27 50 -30
53 -12 12 -130 242 -130 254 0 3 -11 30 -25 59 -13 30 -30 75 -37 101 -7 25
-15 46 -19 46 -3 0 -9 19 -13 42 -4 23 -11 47 -15 53 -5 5 -14 37 -20 70 -6
33 -18 92 -26 130 -9 39 -18 93 -20 120 -3 28 -8 61 -12 75 -3 14 -7 41 -8 61
-2 20 -6 55 -10 78 l-7 42 29 -7 c15 -4 36 -11 46 -16z m5317 -612 c102 -17
256 -87 317 -145 12 -12 28 -21 34 -21 7 0 10 -2 7 -5 -3 -3 10 -22 29 -43 32
-34 120 -198 115 -214 -1 -4 3 -19 8 -33 11 -29 18 -64 30 -145 7 -54 5 -252
-4 -300 -13 -69 -18 -89 -32 -140 -17 -60 -75 -212 -84 -220 -3 -3 -14 -22
-25 -43 -10 -21 -47 -72 -81 -112 -35 -40 -60 -76 -56 -80 4 -4 2 -5 -4 -3 -6
2 -27 -11 -46 -29 -68 -61 -164 -126 -250 -169 -49 -24 -91 -45 -95 -45 -5 -1
-19 -6 -33 -11 -45 -17 -194 -59 -225 -64 -16 -2 -41 -6 -55 -9 -25 -5 -35 -7
-150 -21 -82 -10 -500 -10 -526 0 -16 7 -14 11 21 29 62 33 153 119 147 138
-1 5 2 9 8 9 5 0 10 7 10 15 0 8 5 15 10 15 10 0 35 47 32 61 0 3 4 6 11 6 16
0 189 87 229 115 67 47 134 103 176 148 53 55 105 129 105 147 0 7 3 11 6 8 6
-7 51 88 63 135 21 80 29 129 31 207 2 60 7 87 19 100 10 10 24 36 33 56 19
46 8 100 -31 146 l-25 30 47 97 c26 54 47 104 47 111 0 7 4 13 8 13 4 0 10 12
15 28 4 15 8 29 9 32 1 3 8 21 17 41 17 38 33 99 30 112 -1 4 2 7 7 7 5 0 11
13 14 28 6 31 8 31 87 18z m-310 -35 c0 -5 -20 -58 -45 -117 -25 -60 -45 -113
-45 -117 0 -5 -7 -15 -15 -24 -12 -12 -19 -12 -30 -3 -27 23 -25 48 10 129 19
46 35 89 35 97 0 8 15 21 33 29 37 17 57 19 57 6z m-165 -311 c14 -28 14 -33
-1 -65 -9 -19 -20 -35 -25 -35 -5 0 -8 -4 -6 -8 3 -11 -102 -182 -112 -182 -5
0 -14 13 -21 30 -11 28 -9 35 43 122 30 51 63 110 73 131 10 20 21 37 26 37 4
0 15 -14 23 -30z m-177 -302 c19 -30 20 -33 3 -47 -9 -9 -36 -42 -60 -74 -23
-31 -51 -63 -61 -70 -11 -6 -20 -17 -20 -23 0 -19 -226 -242 -301 -296 -18
-12 -42 -32 -55 -43 -40 -36 -54 -46 -54 -38 0 4 -6 0 -12 -9 -38 -46 -293
-202 -445 -272 -55 -25 -105 -46 -112 -46 -6 0 -11 -4 -11 -10 0 -5 -5 -10
-11 -10 -7 0 -52 -15 -100 -32 -68 -25 -89 -37 -89 -52 0 -11 -5 -16 -14 -13
-7 3 -48 14 -90 24 -77 18 -90 31 -45 44 502 147 837 339 1170 671 94 94 254
283 266 315 8 21 19 15 41 -19z m295 -184 c-3 -74 -18 -140 -50 -226 -13 -37
-23 -69 -21 -70 2 -2 -3 -10 -10 -18 -17 -20 -62 -90 -62 -96 0 -6 -15 -23
-66 -79 -23 -24 -39 -47 -35 -50 3 -4 1 -5 -5 -3 -6 2 -28 -12 -47 -29 -20
-18 -41 -33 -46 -33 -6 0 -17 -10 -25 -22 -9 -12 -16 -19 -16 -15 0 5 -23 -4
-50 -19 -28 -15 -53 -24 -57 -21 -5 6 5 35 38 112 11 25 39 106 39 112 0 3 -8
2 -17 -2 -10 -4 -25 -8 -33 -10 -8 -2 -40 -11 -70 -19 -30 -9 -58 -12 -62 -8
-5 5 28 42 73 83 69 62 164 157 229 228 41 46 110 130 110 135 0 3 8 14 18 24
31 34 52 62 52 71 0 13 14 16 68 15 l47 -1 -2 -59z m-3783 -483 c30 -20 108
-63 173 -97 104 -53 122 -66 143 -104 13 -24 22 -45 20 -48 -7 -7 -146 60
-146 70 0 5 -4 6 -10 3 -5 -3 -10 -2 -10 3 0 6 -10 12 -22 16 -13 3 -54 22
-91 43 -38 21 -77 43 -88 48 -15 8 -49 85 -49 112 0 5 6 1 80 -46z m911 -1018
c3 -74 -23 -150 -63 -183 -34 -29 -40 -24 -33 23 4 23 8 50 8 60 1 9 5 17 9
17 4 0 8 7 8 15 0 9 7 27 16 40 9 13 13 29 9 34 -3 7 0 8 9 5 9 -3 16 -1 16 5
0 25 20 9 21 -16z"/>
<path d="M2191 6665 c-22 -36 -37 -65 -33 -65 10 1 94 130 83 130 -5 0 -27
-29 -50 -65z"/>
<path d="M2129 6553 c-13 -16 -12 -17 4 -4 9 7 17 15 17 17 0 8 -8 3 -21 -13z"/>
<path d="M788 6253 c6 -2 18 -2 25 0 6 3 1 5 -13 5 -14 0 -19 -2 -12 -5z"/>
<path d="M838 6248 c6 -6 18 -8 28 -6 14 3 12 5 -9 10 -19 3 -25 2 -19 -4z"/>
<path d="M691 6234 c-50 -21 -118 -80 -148 -128 -30 -47 -57 -126 -43 -126 6
0 10 9 10 20 0 31 39 106 74 143 45 48 93 79 145 93 30 8 37 13 21 13 -14 0
-40 -6 -59 -15z"/>
<path d="M915 6223 c40 -21 74 -52 96 -88 11 -16 19 -24 19 -18 0 30 -106 124
-137 123 -4 -1 6 -8 22 -17z"/>
<path d="M1031 6070 c0 -20 -8 -46 -17 -58 -8 -12 -11 -22 -6 -22 15 0 34 55
29 86 -4 26 -4 26 -6 -6z"/>
<path d="M854 6033 c-9 -35 13 -75 49 -87 20 -7 36 -5 63 8 20 9 34 19 31 22
-3 3 -16 -1 -29 -9 -26 -17 -71 -13 -88 8 -8 10 -8 20 1 37 20 35 19 48 -2 48
-12 0 -21 -10 -25 -27z"/>
<path d="M2816 1063 c-32 -8 -74 -38 -98 -68 -18 -23 -23 -42 -23 -87 0 -49 4
-61 30 -88 35 -36 98 -57 129 -41 19 9 19 10 -5 5 -30 -6 -83 14 -118 45 -34
30 -36 116 -5 158 24 31 69 61 102 66 12 2 25 6 28 10 8 8 -10 8 -40 0z"/>
<path d="M2797 942 c-19 -21 -23 -62 -6 -62 5 0 7 -4 4 -10 -7 -11 6 -13 29
-4 18 7 10 34 -10 34 -17 0 -18 22 -2 38 27 27 83 10 106 -33 6 -11 12 -14 12
-7 0 7 -11 24 -25 37 -30 31 -84 34 -108 7z"/>
<path d="M2902 822 l-23 -37 26 28 c14 15 25 32 25 38 0 14 -3 11 -28 -29z"/>
<path d="M2875 630 c-3 -5 -1 -10 4 -10 6 0 11 5 11 10 0 6 -2 10 -4 10 -3 0
-8 -4 -11 -10z"/>
<path d="M2112 512 c-15 -10 -23 -44 -14 -59 13 -19 49 -24 65 -9 8 8 17 12
21 9 10 -10 7 -61 -4 -68 -5 -3 -10 -13 -10 -21 0 -8 5 -14 10 -14 6 0 10 6
10 14 0 8 6 16 12 18 20 7 15 83 -6 107 -10 11 -22 18 -27 16 -4 -3 -10 -1
-14 5 -7 12 -25 13 -43 2z"/>
</g>
</svg>
