<?xml version="1.0" standalone="no"?>
<!DOCTYPE svg PUBLIC "-//W3C//DTD SVG 20010904//EN"
 "http://www.w3.org/TR/2001/REC-SVG-20010904/DTD/svg10.dtd">
<svg version="1.0" xmlns="http://www.w3.org/2000/svg"
 width="1032.000000pt" height="1032.000000pt" viewBox="0 0 1032.000000 1032.000000"
 preserveAspectRatio="xMidYMid meet">
<metadata>
Created by potrace 1.11, written by Peter Selinger 2001-2013
</metadata>
<g transform="translate(0.000000,1032.000000) scale(0.100000,-0.100000)"
fill="#000000" stroke="none">
<path d="M2120 7946 c-47 -15 -62 -24 -115 -75 -48 -45 -74 -86 -81 -128 -6
-34 -7 -132 -1 -173 24 -176 32 -220 38 -220 3 0 6 -8 6 -17 -1 -10 9 -50 21
-89 12 -39 22 -80 22 -90 0 -26 84 -298 110 -356 11 -26 21 -51 21 -55 0 -5 6
-17 13 -28 7 -11 34 -76 60 -144 25 -68 53 -140 62 -160 19 -44 102 -218 117
-246 6 -11 17 -33 24 -50 8 -16 18 -38 24 -47 5 -10 9 -25 9 -33 0 -8 5 -15
12 -15 6 0 9 -3 5 -6 -13 -14 106 -201 179 -283 44 -49 144 -131 160 -131 4 0
21 -11 38 -23 28 -22 60 -38 216 -109 84 -38 310 -113 450 -148 148 -38 135
-35 183 -45 20 -4 37 -11 37 -17 0 -5 4 -7 10 -3 5 3 40 -2 77 -10 37 -9 85
-18 105 -20 21 -2 57 -9 80 -16 24 -6 53 -13 66 -15 12 -2 34 -7 50 -10 15 -3
34 -7 42 -8 8 -2 33 -7 55 -12 22 -4 42 -9 45 -9 40 -8 51 -18 45 -43 -4 -15
-8 -34 -10 -42 -2 -8 -11 -42 -20 -75 -9 -33 -18 -67 -20 -75 -2 -8 -13 -55
-25 -105 -11 -49 -23 -103 -26 -120 -9 -55 -56 -259 -60 -267 -3 -4 -7 -27 -9
-50 -4 -44 -10 -76 -19 -106 -11 -35 -17 -76 -32 -211 -2 -25 -7 -54 -9 -65
-11 -48 -16 -85 -22 -151 -3 -38 -8 -73 -12 -77 -3 -4 -59 -10 -123 -13 -65
-3 -128 -8 -140 -11 -13 -2 -47 -7 -76 -9 -29 -3 -65 -7 -81 -10 -27 -5 -29
-3 -25 20 7 37 67 201 103 277 35 74 37 90 17 107 -12 10 -25 5 -68 -25 -29
-20 -64 -47 -79 -60 -14 -13 -28 -24 -32 -24 -4 0 -16 -9 -28 -21 -29 -29 -34
-18 -10 25 45 79 31 122 -28 92 -87 -46 -301 -254 -301 -294 0 -6 -4 -12 -9
-14 -10 -4 -66 -110 -63 -120 1 -5 -2 -8 -6 -8 -4 0 -16 -22 -26 -50 -15 -42
-24 -52 -64 -71 -103 -48 -220 -125 -269 -175 -48 -49 -59 -70 -80 -154 -8
-31 -4 -150 6 -168 6 -11 8 -22 5 -25 -11 -11 74 -289 121 -392 35 -78 118
-144 205 -162 35 -8 148 -7 189 1 49 10 102 34 130 59 29 27 80 133 83 176 2
26 7 31 28 32 14 0 48 3 75 5 125 11 213 14 555 18 326 4 422 1 525 -18 79
-15 166 -36 225 -56 36 -12 70 -23 75 -24 6 -1 15 -4 20 -8 20 -12 253 -92
300 -103 11 -2 54 -14 95 -25 41 -12 80 -23 85 -24 42 -11 126 -40 210 -74
148 -58 252 -91 375 -116 14 -3 36 -8 50 -10 28 -6 63 -13 100 -20 24 -5 112
-15 175 -21 17 -2 53 -6 80 -9 52 -6 223 -18 263 -19 12 -1 19 -4 15 -7 -11
-9 -88 -35 -148 -50 -27 -7 -70 -22 -95 -32 -109 -47 -130 -60 -130 -79 0 -23
-12 -21 180 -23 158 -2 195 -6 288 -32 54 -16 69 -27 30 -23 -19 2 -61 -3
-138 -15 -76 -13 -238 -75 -281 -109 -9 -6 -21 -22 -27 -34 -10 -17 -9 -25 4
-37 9 -9 20 -14 25 -10 11 6 57 16 79 17 8 0 20 3 25 7 6 4 91 8 190 9 226 2
282 8 369 38 28 9 53 18 56 18 28 8 171 95 197 120 7 7 16 15 21 17 20 8 94
136 113 198 l23 69 64 3 65 3 23 70 c74 215 86 252 87 268 1 9 5 17 9 17 4 0
7 3 6 8 -5 15 80 247 122 337 11 22 27 60 35 85 28 78 63 173 85 230 12 30 34
96 50 145 15 50 33 103 39 118 20 52 13 78 -46 156 -31 42 -65 84 -76 94 -11
9 -17 17 -14 17 4 0 -12 17 -35 37 -24 21 -86 80 -138 133 -53 52 -170 167
-261 255 -91 88 -168 166 -170 173 -4 13 -68 19 -304 27 -134 4 -665 16 -690
15 -43 -1 -123 0 -188 2 -93 4 -112 -6 -122 -62 -4 -22 -11 -40 -16 -40 -5 0
-9 -7 -9 -16 0 -8 -11 -39 -24 -67 -42 -89 -99 -230 -99 -244 0 -7 -4 -13 -9
-13 -4 0 -8 -8 -8 -18 0 -25 -27 -106 -60 -177 -15 -33 -42 -103 -60 -155 -18
-52 -36 -99 -39 -105 -4 -5 -16 -38 -27 -72 -10 -35 -23 -64 -29 -66 -5 -2
-47 8 -92 22 -83 26 -83 26 -84 61 0 19 -2 44 -5 55 -2 11 -7 40 -10 65 -3 24
-7 47 -9 50 -2 3 -6 26 -10 50 -3 25 -23 106 -44 180 -51 181 -57 203 -86 360
-25 132 -40 204 -51 245 -25 100 -35 296 -20 399 4 27 9 52 11 56 2 4 6 18 9
33 4 15 8 38 11 51 3 13 12 40 20 59 8 20 14 42 13 49 -2 7 28 21 77 35 44 13
87 26 95 30 8 3 17 7 20 8 3 1 52 16 110 33 58 18 132 42 165 52 33 11 69 22
81 24 35 7 108 29 119 36 6 4 24 10 40 14 63 14 171 50 193 64 12 8 22 11 22
8 0 -4 14 0 30 9 17 9 30 13 30 9 0 -4 7 -1 15 6 8 7 15 10 15 7 0 -3 24 4 53
15 28 11 84 30 122 43 39 13 88 31 110 40 22 10 40 17 40 16 0 -4 185 52 237
71 15 6 28 9 30 8 2 -1 16 4 32 10 16 6 45 13 65 16 66 11 137 51 192 110 30
31 71 75 91 96 21 21 38 41 38 43 0 3 8 13 18 23 9 10 37 42 62 71 66 78 73
87 95 117 23 31 67 86 75 94 6 5 102 110 160 176 20 21 57 66 83 99 26 33 51
65 56 71 4 5 14 21 21 35 7 13 34 50 59 82 99 125 113 144 144 192 52 79 133
252 123 263 -3 2 -1 14 4 27 5 13 6 26 3 29 -3 3 -7 35 -9 71 -5 90 -28 130
-106 178 -38 24 -109 22 -141 -3 -14 -11 -29 -20 -34 -20 -14 0 -80 -68 -127
-130 -22 -30 -44 -56 -48 -58 -5 -2 -8 -11 -8 -20 0 -24 -14 -4 -17 26 -8 62
-53 99 -92 75 -40 -25 -54 -125 -37 -258 18 -132 12 -170 -44 -275 -22 -41
-46 -88 -53 -105 -8 -16 -49 -86 -91 -153 -42 -68 -76 -128 -76 -133 0 -5 -4
-9 -8 -9 -5 0 -17 -18 -27 -40 -10 -22 -21 -40 -25 -40 -4 0 -13 -12 -21 -27
-16 -32 -20 -37 -92 -123 -103 -123 -225 -215 -332 -251 -22 -8 -42 -17 -45
-21 -3 -3 -41 -20 -84 -38 -44 -17 -89 -36 -100 -43 -12 -6 -23 -12 -26 -13
-3 0 -12 -4 -20 -7 -46 -20 -164 -56 -170 -52 -5 3 -10 2 -12 -2 -3 -9 -132
-73 -145 -73 -5 0 -21 -7 -38 -16 -33 -18 -306 -112 -345 -120 -14 -3 -40 -9
-59 -14 -32 -9 -61 -3 -34 7 6 2 20 12 31 21 11 9 37 30 58 47 22 16 56 46 77
66 20 20 37 35 37 33 0 -10 108 113 141 160 46 66 132 230 149 281 7 22 15 45
19 50 3 6 7 15 8 20 1 6 10 35 19 65 27 89 26 661 -2 747 -24 74 -55 132 -115
213 -76 103 -138 163 -274 265 -58 43 -211 125 -234 125 -6 0 -19 5 -29 10
-24 14 -182 70 -182 65 0 -2 -15 2 -33 10 -18 7 -60 17 -92 22 -105 14 -391 8
-475 -11 -75 -16 -119 -33 -132 -51 -4 -5 -8 -7 -8 -2 0 4 -18 -4 -40 -18 -22
-14 -43 -25 -46 -25 -22 0 -211 -180 -263 -250 -14 -19 -29 -37 -32 -40 -32
-27 -129 -203 -129 -234 0 -8 -4 -16 -9 -18 -8 -3 -46 -121 -57 -178 -3 -14
-7 -33 -10 -42 -12 -40 -14 -69 -15 -169 l0 -105 -32 -19 c-37 -21 -107 -94
-107 -111 0 -6 -7 -25 -16 -43 -24 -47 -41 -168 -33 -222 10 -62 62 -191 96
-237 39 -54 87 -98 141 -129 26 -15 48 -30 50 -34 2 -4 23 -13 48 -20 24 -8
44 -19 44 -27 0 -14 13 -47 51 -128 10 -23 40 -63 66 -90 27 -27 47 -52 46
-55 -4 -12 -14 -64 -20 -101 -3 -23 -12 -40 -23 -43 -17 -5 -97 0 -135 9 -106
25 -228 57 -263 70 -24 9 -46 15 -50 15 -4 -1 -9 0 -12 1 -6 2 -13 4 -100 25
-67 16 -110 29 -170 50 -19 7 -37 13 -40 12 -3 0 -28 7 -56 17 -28 9 -59 18
-70 21 -16 3 -244 82 -371 128 -77 29 -202 103 -203 122 0 6 -11 20 -24 32
-13 13 -34 44 -46 70 -46 99 -72 157 -75 167 -1 6 -6 22 -12 36 -11 26 -51
144 -58 170 -2 8 -17 54 -34 101 -17 48 -32 102 -34 121 -2 19 -7 39 -10 45
-3 5 -8 20 -11 34 -5 24 -7 32 -26 104 -15 55 -17 64 -26 115 -9 51 -11 59
-14 63 -1 1 -3 9 -5 17 -1 8 -11 51 -20 95 -23 108 -21 279 5 390 6 28 14 73
16 100 3 28 9 70 13 95 20 103 3 171 -41 165 -38 -5 -55 -15 -66 -41 -17 -37
-29 -30 -59 36 -14 33 -30 60 -35 60 -4 0 -8 5 -8 10 0 22 -65 86 -105 104
-45 21 -67 23 -105 12z m5054 -3603 c6 -15 4 -15 -18 -7 -20 8 -21 21 -1 21 8
0 16 -6 19 -14z"/>
<path d="M4200 2613 c-26 -10 -50 -35 -50 -54 0 -9 16 -31 35 -48 34 -29 43
-59 29 -94 -4 -12 -17 -14 -55 -10 -52 6 -61 -3 -31 -30 40 -36 114 -20 132
28 5 14 14 25 20 25 5 0 10 20 10 45 0 68 20 55 36 -23 1 -8 5 -17 9 -20 8 -8
25 19 19 29 -2 4 0 10 5 13 5 4 12 -2 16 -13 8 -25 50 -52 69 -45 8 3 25 -2
39 -11 21 -14 27 -14 39 -2 8 9 26 12 46 9 20 -3 32 0 32 7 0 7 5 9 13 4 24
-15 37 -11 57 22 16 25 18 39 11 58 -12 31 -36 40 -56 21 -11 -12 -15 -12 -16
-2 -3 52 -8 90 -13 95 -15 15 -20 -14 -18 -95 2 -84 1 -86 -14 -59 -8 16 -17
48 -20 70 -6 69 -10 82 -25 82 -9 0 -13 -9 -12 -25 14 -148 13 -160 -7 -160
-13 0 -20 7 -21 20 -1 11 -3 25 -4 30 -1 6 -3 19 -4 30 0 11 -8 20 -17 20 -14
0 -16 -7 -11 -40 3 -22 1 -40 -4 -40 -5 0 -12 -1 -16 -1 -12 -2 -41 53 -42 79
-1 15 -7 22 -21 22 -11 0 -20 -5 -20 -11 0 -6 -9 -4 -21 5 -24 16 -49 11 -49
-10 0 -18 -69 -12 -81 7 -12 19 -7 32 19 44 12 5 22 15 22 22 0 14 -6 15 -30
6z m455 -133 c-7 -34 -15 -42 -31 -29 -18 14 -14 42 6 50 21 9 29 2 25 -21z"/>
<path d="M4420 2571 c0 -17 18 -21 24 -6 3 9 0 15 -9 15 -8 0 -15 -4 -15 -9z"/>
<path d="M4830 2524 c-14 -7 -26 -18 -26 -24 -1 -5 -2 -17 -3 -26 -1 -20 -21
-8 -21 14 0 25 -18 49 -27 37 -5 -5 -14 -10 -22 -10 -9 0 -15 -14 -18 -39 -3
-43 11 -60 37 -46 9 5 22 5 30 0 17 -11 40 -2 40 16 0 8 4 14 9 14 6 0 8 -9 6
-19 -2 -11 3 -22 11 -25 14 -5 16 1 16 56 1 35 14 27 22 -13 5 -26 9 -29 20
-20 12 10 19 8 35 -8 25 -25 51 -27 51 -6 0 8 -4 15 -10 15 -5 0 -33 23 -62
50 -29 28 -55 50 -58 49 -3 -1 -16 -7 -30 -15z"/>
</g>
</svg>
